<svg id="Layer_1" data-name="Layer 1" xmlns="http://www.w3.org/2000/svg" xmlns:xlink="http://www.w3.org/1999/xlink" viewBox="0 0 144 144"><defs><style>.cls-1{fill-rule:evenodd;fill:url(#linear-gradient);}.cls-2{fill:url(#linear-gradient-2);}.cls-3{fill:url(#linear-gradient-3);}.cls-4{fill:url(#linear-gradient-4);}.cls-5{fill:#fff;}</style><linearGradient id="linear-gradient" x1="24.98" y1="118.5" x2="117.86" y2="25.61" gradientUnits="userSpaceOnUse"><stop offset="0" stop-color="#000400"/><stop offset="1" stop-color="#3b5eaf"/></linearGradient><linearGradient id="linear-gradient-2" x1="99.43" y1="604.27" x2="100.41" y2="605.25" gradientTransform="matrix(39, 0, 0, -40, -3854.02, 24254.5)" gradientUnits="userSpaceOnUse"><stop offset="0.11" stop-color="#c757bc"/><stop offset="0.17" stop-color="#cd5ca9"/><stop offset="0.49" stop-color="#e8744f"/><stop offset="0.72" stop-color="#f88316"/><stop offset="0.82" stop-color="#ff8900"/></linearGradient><linearGradient id="linear-gradient-3" x1="99.94" y1="592.44" x2="100.42" y2="593.4" gradientTransform="matrix(39, 0, 0, -20, -3854.02, 11943.5)" gradientUnits="userSpaceOnUse"><stop offset="0.3" stop-color="#00afff"/><stop offset="0.69" stop-color="#5282ff"/><stop offset="1" stop-color="#945dff"/></linearGradient><linearGradient id="linear-gradient-4" x1="97.86" y1="594.5" x2="98.53" y2="595.13" gradientTransform="matrix(20, 0, 0, -21, -1927.01, 12541)" xlink:href="#linear-gradient-3"/></defs><title>Artboard 4</title><path class="cls-1" d="M130.3,38.06v68l-58.88,34-58.89-34v-68l58.89-34Z"/><g id="Kotlin-_-Gradle-Logo" data-name="Kotlin-+-Gradle-Logo"><g id="kotlin-2"><polygon id="Shape" class="cls-2" points="51.33 44.93 30.7 67.19 30.7 87.09 51.3 65.92 71.8 44.93 51.33 44.93"/><polygon id="Shape-2" data-name="Shape" class="cls-3" points="30.7 87.09 51.3 65.92 71.8 87.09 30.7 87.09"/><polygon id="Shape-3" data-name="Shape" class="cls-4" points="30.7 44.93 51.77 44.93 30.7 67.19 30.7 44.93"/></g></g><path class="cls-5" d="M105.88,54.44H106a9.46,9.46,0,0,1,8.19,4.73c3.88,6.56.46,14-3.16,20.17s-9.37,9.4-7.46,19.84H96.79s-5.21-6.81-10.05-6.81c-2.42,0-4.75,1.71-6.29,6.81H75.22c-.54-3.81-2.4-5.77-4.34-5.77S67,95.29,66.15,99.18H59.3S55.56,77.89,69.36,73.07a44.42,44.42,0,0,0,2.87,5.4,5,5,0,0,0,4.2,2.41c2.14,0,4.82-1.44,7.71-5.67,0,0-4,4.37-7.51,4.37a3.55,3.55,0,0,1-3.14-1.88,57.42,57.42,0,0,1-3.56-6.25c-1.59-3,.27-4.32,4.31-5.62a27.58,27.58,0,0,1,8.46-1.41,23.4,23.4,0,0,1,13.68,4.42,10.84,10.84,0,0,0,6.25,2.2c5.91,0,9.68-6.16,7.88-9.58a4.8,4.8,0,0,0-3.65-2.75,6.56,6.56,0,0,0-.76,0,5.12,5.12,0,0,0-2.44.59,2.48,2.48,0,0,1-1.08.37.82.82,0,0,1-.71-.37,19.33,19.33,0,0,1-1.05-2c-.48-1.11,2-2.79,5.06-2.79M98,79.54A4.1,4.1,0,0,0,101.74,77l-1.93-.63,0,.11a1.85,1.85,0,0,1-1.7,2h-.21a1.85,1.85,0,0,1-1.88-1.6,1.75,1.75,0,0,1,.62-1.51l-2.34-.75S93,78.16,96.65,79.33a4.06,4.06,0,0,0,1.3.21m7.93-26.44c-2.58,0-5.06,1-6,2.51a2.21,2.21,0,0,0-.25,2.15A20.05,20.05,0,0,0,100.77,60a2.15,2.15,0,0,0,1.81,1,3.53,3.53,0,0,0,1.65-.5l0,0A3.74,3.74,0,0,1,106.1,60a4.35,4.35,0,0,1,.61,0,3.42,3.42,0,0,1,2.61,2,4.36,4.36,0,0,1-.56,4.09,7.25,7.25,0,0,1-6.13,3.53,9.57,9.57,0,0,1-5.48-2A24.78,24.78,0,0,0,82.7,63.08a28.76,28.76,0,0,0-8.88,1.47c-2.8.9-4.82,1.87-5.54,3.64a4.38,4.38,0,0,0,.37,3.71c-6,2.21-9.74,7.69-10.83,15.85A42.37,42.37,0,0,0,58,99.41a1.35,1.35,0,0,0,1.33,1.11h6.85a1.34,1.34,0,0,0,1.31-1c.73-3.26,2.24-4.72,3.42-4.72s2.56,1.44,3,4.62a1.34,1.34,0,0,0,1.33,1.15h5.23a1.34,1.34,0,0,0,1.28-1c1.17-3.88,2.86-5.85,5-5.85,3.43,0,7.65,4.53,9,6.27a1.32,1.32,0,0,0,1.06.53h6.82a1.34,1.34,0,0,0,1.32-1.58c-1.33-7.29,1.27-10.69,4.28-14.63a42.16,42.16,0,0,0,3-4.29c7-11.92,5.4-17.77,3.17-21.53a10.92,10.92,0,0,0-9.32-5.39Z"/></svg>